G04*
G04 #@! TF.GenerationSoftware,Altium Limited,Altium Designer,23.1.1 (15)*
G04*
G04 Layer_Physical_Order=1*
G04 Layer_Color=255*
%FSLAX44Y44*%
%MOMM*%
G71*
G04*
G04 #@! TF.SameCoordinates,F08BC5B5-0EC8-43BF-A111-79A505F471D5*
G04*
G04*
G04 #@! TF.FilePolarity,Positive*
G04*
G01*
G75*
%ADD10C,1.5000*%
%ADD11R,0.9561X1.6582*%
%ADD12R,1.6582X0.9561*%
%ADD13R,2.4000X2.8000*%
%ADD14C,0.2540*%
%ADD15R,1.5000X1.5000*%
%ADD16R,1.5000X1.5000*%
D10*
X241300Y95250D02*
D03*
Y44450D02*
D03*
Y69850D02*
D03*
Y120650D02*
D03*
Y146050D02*
D03*
Y19050D02*
D03*
X195580Y120650D02*
D03*
X201930Y25400D02*
D03*
D11*
X169471Y24130D02*
D03*
X142949D02*
D03*
D12*
X154940Y56589D02*
D03*
Y83111D02*
D03*
D13*
X20450Y131200D02*
D03*
X81450D02*
D03*
X20450Y21200D02*
D03*
X81450D02*
D03*
D14*
X0Y0D02*
X270510D01*
X0Y158750D02*
X270510D01*
Y0D02*
Y158750D01*
X0Y0D02*
Y158750D01*
X157890Y83111D02*
X188669D01*
X201930Y69850D01*
X154940Y82550D02*
X157890D01*
X170180Y94840D01*
X62792Y33930D02*
X111412Y82550D01*
X154379D02*
X154940Y83111D01*
X111412Y82550D02*
X154379D01*
X142949Y46429D02*
X153670Y57150D01*
X142949Y24130D02*
Y46429D01*
X170180Y25400D02*
X201930D01*
X208280Y19050D01*
X241300D01*
X233680Y50800D02*
X240030Y44450D01*
X201930Y50800D02*
X233680D01*
X203200Y69850D02*
X241300D01*
X201930Y50800D02*
Y69850D01*
X170180Y94840D02*
Y120650D01*
X15240Y20320D02*
X28850Y33930D01*
X62792D01*
X241300Y120650D02*
X242570D01*
X195580D02*
X241300D01*
X242570D02*
X243840Y119380D01*
X240030Y148590D02*
X242570Y146050D01*
X142240Y148590D02*
X240030D01*
X124850Y131200D02*
X142240Y148590D01*
X81450Y131200D02*
X124850D01*
X20840Y130810D02*
X81280D01*
X20450Y131200D02*
X20840Y130810D01*
D15*
X170180Y120650D02*
D03*
D16*
X201930Y50800D02*
D03*
M02*
